# xmcd
#
# Track frame offsets:
#	150
#	32980
#	57497
#	89855
#	115520
#	140032
#	164542
#	195735
#	219970
#	251172
#
# Disc length: 3697
#
# Revision: 1
# Processed by: cddbd v1.5.1PL0 Copyright (c) Steve Scherf et al.
# Submitted via: CDex 1.50Beta7
# Normalized: r0:DSETVAR1,TDELIM( - )
#
DISCID=9a0e6f0a
DTITLE=Various Artist - the ocean presents Huge Tunes [disk2]
DYEAR=2002
DGENRE=Trance
TTITLE0=DEPECHE MODE - I FEEL LOVED (Danny Tenaglia's Labor Of Love Edit)
TTITLE1=PHOTEK - MINE TO GIVE (Satoshi Tomiie Dub)
TTITLE2=DJ 19 - IC (Piece Process Remix)
TTITLE3=LUKE SLATER - ALL EXHALE (Futureshock Remix)
TTITLE4=KELIS - YOUNG, FRESH N' NEW (Timo Maas Dub)
TTITLE5=DIRTY VEGAS - DAYS GO BY (Jark Prongo Mix)
TTITLE6=PAR-T-ONE VS INXS - I'M SO CRAZY (Dirty Vegas Club Mix)
TTITLE7=PARIS and SHARP - APHRODITE (King Unique Filthy Mix)
TTITLE8=PLACEBO - SPECIAL K (Timo Maas Remix)
TTITLE9=ORINOKO - ISLAND  (Alt. Mix)
EXTD=YEAR: 2002
EXTT0=
EXTT1=
EXTT2=
EXTT3=
EXTT4=
EXTT5=
EXTT6=
EXTT7=
EXTT8=
EXTT9=
PLAYORDER=
